<?xml version="1.0" standalone="no"?>
<!DOCTYPE svg PUBLIC "-//W3C//DTD SVG 20010904//EN"
 "http://www.w3.org/TR/2001/REC-SVG-20010904/DTD/svg10.dtd">
<svg version="1.0" xmlns="http://www.w3.org/2000/svg"
 width="16.000000pt" height="16.000000pt" viewBox="0 0 16.000000 16.000000"
 preserveAspectRatio="xMidYMid meet">
<metadata>
Created by potrace 1.11, written by Peter Selinger 2001-2013
</metadata>
<g transform="translate(0.000000,16.000000) scale(0.003125,-0.003125)"
fill="#000000" stroke="none">
<path d="M1080 4775 l0 -345 121 0 120 0 -3 115 -3 115 105 0 105 0 -3 -115
-3 -115 120 0 121 0 0 345 0 345 -121 0 -120 0 2 -112 1 -113 -102 0 -102 0 1
113 2 112 -120 0 -121 0 0 -345z"/>
<path d="M1850 5005 l0 -115 105 0 105 0 0 -230 0 -230 115 0 115 0 0 230 0
230 105 0 105 0 0 115 0 115 -325 0 -325 0 0 -115z"/>
<path d="M2590 4775 l0 -345 115 0 115 0 2 166 3 167 75 -117 c41 -64 78 -116
82 -116 3 0 40 53 82 117 l76 117 0 -167 0 -167 115 0 115 0 0 345 0 346 -122
-3 -122 -3 -64 -105 c-35 -58 -67 -110 -70 -117 -4 -7 -37 36 -81 108 l-74
119 -123 0 -124 0 0 -345z"/>
<path d="M3480 4775 l0 -345 285 0 285 0 0 115 0 115 -165 0 -165 0 0 230 0
230 -120 0 -120 0 0 -345z"/>
<path d="M750 4103 c0 -38 329 -3686 333 -3689 2 -3 335 -97 740 -209 l735
-204 738 205 c406 112 739 206 742 208 3 3 332 3656 332 3689 0 4 -814 7
-1810 7 -995 0 -1810 -3 -1810 -7z m1817 -625 c-1 -62 -3 -12 -3 112 0 124 2
174 3 113 2 -62 2 -164 0 -225z m1460 170 c-3 -8 -6 -5 -6 6 -1 11 2 17 5 13
3 -3 4 -12 1 -19z m-10 -110 c-3 -8 -6 -5 -6 6 -1 11 2 17 5 13 3 -3 4 -12 1
-19z m-10 -110 c-3 -8 -6 -5 -6 6 -1 11 2 17 5 13 3 -3 4 -12 1 -19z m-307
-78 c0 -16 -29 -340 -35 -397 l-6 -53 -871 0 -870 0 6 -27 c3 -16 13 -119 22
-230 l17 -203 830 0 830 0 -6 -37 c-3 -21 -31 -333 -63 -693 -33 -386 -62
-660 -68 -666 -6 -6 -217 -68 -468 -137 l-458 -127 -466 130 c-257 71 -468
131 -469 132 -2 2 -15 140 -29 308 -15 168 -30 329 -33 358 l-6 52 235 0 235
0 13 -170 c7 -94 18 -176 24 -184 12 -16 457 -139 496 -137 27 1 487 124 495
133 5 4 55 524 55 564 0 12 -130 14 -784 14 l-785 0 -6 53 c-9 81 -115 1279
-115 1305 l0 22 1140 0 c741 0 1140 -3 1140 -10z m297 -32 c-3 -8 -6 -5 -6 6
-1 11 2 17 5 13 3 -3 4 -12 1 -19z m-20 -230 c-3 -8 -6 -5 -6 6 -1 11 2 17 5
13 3 -3 4 -12 1 -19z m-10 -110 c-3 -8 -6 -5 -6 6 -1 11 2 17 5 13 3 -3 4 -12
1 -19z m-1400 -420 c-1 -62 -3 -12 -3 112 0 124 2 174 3 113 2 -62 2 -164 0
-225z m1390 310 c-3 -8 -6 -5 -6 6 -1 11 2 17 5 13 3 -3 4 -12 1 -19z m-10
-110 c-3 -8 -6 -5 -6 6 -1 11 2 17 5 13 3 -3 4 -12 1 -19z m-20 -230 c-3 -8
-6 -5 -6 6 -1 11 2 17 5 13 3 -3 4 -12 1 -19z m-10 -110 c-3 -8 -6 -5 -6 6 -1
11 2 17 5 13 3 -3 4 -12 1 -19z m-10 -110 c-3 -8 -6 -5 -6 6 -1 11 2 17 5 13
3 -3 4 -12 1 -19z m-20 -230 c-3 -8 -6 -5 -6 6 -1 11 2 17 5 13 3 -3 4 -12 1
-19z m-10 -110 c-3 -8 -6 -5 -6 6 -1 11 2 17 5 13 3 -3 4 -12 1 -19z m-1310
-515 c-1 -98 -2 -20 -2 172 -1 193 1 273 2 178 2 -94 2 -252 0 -350z m1300
405 c-3 -8 -6 -5 -6 6 -1 11 2 17 5 13 3 -3 4 -12 1 -19z m-10 -110 c-3 -8 -6
-5 -6 6 -1 11 2 17 5 13 3 -3 4 -12 1 -19z m-20 -230 c-3 -8 -6 -5 -6 6 -1 11
2 17 5 13 3 -3 4 -12 1 -19z m-10 -110 c-3 -8 -6 -5 -6 6 -1 11 2 17 5 13 3
-3 4 -12 1 -19z m-10 -110 c-3 -8 -6 -5 -6 6 -1 11 2 17 5 13 3 -3 4 -12 1
-19z m-10 -110 c-3 -8 -6 -5 -6 6 -1 11 2 17 5 13 3 -3 4 -12 1 -19z m-20
-230 c-3 -8 -6 -5 -6 6 -1 11 2 17 5 13 3 -3 4 -12 1 -19z m-10 -110 c-3 -8
-6 -5 -6 6 -1 11 2 17 5 13 3 -3 4 -12 1 -19z m-1210 -415 c-1 -65 -3 -14 -3
112 0 127 2 180 3 118 2 -62 2 -165 0 -230z m1200 305 c-3 -8 -6 -5 -6 6 -1
11 2 17 5 13 3 -3 4 -12 1 -19z"/>
</g>
</svg>
